<svg xmlns="http://www.w3.org/2000/svg" viewBox="0 0 512 512" width="100%" height="100%">
  <defs>
    <linearGradient id="coralGrad" x1="0%" y1="0%" x2="100%" y2="100%">
      <stop offset="0%" stop-color="#EE7342" />
      <stop offset="100%" stop-color="#E55F2A" />
    </linearGradient>
  </defs>

  <!-- Coral Background with squircle corners -->
  <rect width="512" height="512" rx="120" fill="url(#coralGrad)" />

  <!-- Subtle organic background blob -->
  <path d="M205 8 C288 4 362 62 386 148 C408 228 366 322 288 366 C210 410 108 398 46 330 C-14 264 -6 128 74 54 C112 20 158 10 205 8 Z"
        fill="#D8552B" opacity="0.28" transform="translate(180, -90) scale(1.15)" />

  <!-- "Miradas" wordmark in Fraunces -->
  <g id="brand-wordmark">
    <path d="M1064 483L921 461L1219 1267Q1247 1343 1284 1371.5Q1321 1400 1386 1400L1776 1400Q1819 1400 1839.5 1382.5Q1860 1365 1860 1334Q1860 1306 1847 1288Q1834 1270 1810 1261L1772 1247Q1741 1237 1730.5 1220Q1720 1203 1722 1168L1785 228Q1787 191 1797.5 176.5Q1808 162 1833 153L1872 139Q1894 131 1906 113.5Q1918 96 1918 70Q1918 40 1897.5 20Q1877 0 1834 0L1274 0Q1230 0 1209.5 18Q1189 36 1189 66Q1189 92 1200 110.5Q1211 129 1240 139L1279 153Q1309 163 1319.5 179.5Q1330 196 1328 229L1254 1222L1382 1234L981 145Q953 70 924.5 49.5Q896 29 856 29Q826 29 802 36Q778 43 757 69Q736 95 714 152L302 1195L426 1217L349 266Q345 218 370 192.5Q395 167 433 146L461 130Q478 121 487 106.5Q496 92 496 69Q496 38 476 19Q456 0 413 0L116 0Q73 0 53 18Q33 36 33 66Q33 97 49 113Q65 129 90 142L111 152Q143 167 166 193.5Q189 220 193 267L261 1121Q266 1180 255 1208Q244 1236 212 1247L174 1261Q148 1271 135.5 1288.5Q123 1306 123 1334Q123 1400 207 1400L593 1400Q654 1400 690.5 1374.5Q727 1349 758 1271Z" transform="translate(60.48, 270.00) scale(0.046, -0.046)" fill="#241D15" />
    <path d="M571 904L571 206Q571 167 577 150.5Q583 134 598 127L620 117Q643 108 653 93Q663 78 663 59Q663 31 645 15.5Q627 0 588 0L131 0Q92 0 74.5 15.5Q57 31 57 59Q57 78 67 93Q77 108 99 117L122 127Q137 134 143 150.5Q149 167 149 206L149 683Q149 714 140.5 727Q132 740 115 745L93 752Q72 759 62.5 771.5Q53 784 53 804Q53 827 66 841Q79 855 114 868L340 955Q393 975 423.5 983.5Q454 992 477 992Q524 992 547.5 967Q571 942 571 904ZM338 1079Q227 1079 162 1131.5Q97 1184 97 1273Q97 1362 162 1413.5Q227 1465 338 1465Q450 1465 514.5 1413.5Q579 1362 579 1273Q579 1184 514.5 1131.5Q450 1079 338 1079Z" transform="translate(150.91, 270.00) scale(0.046, -0.046)" fill="#241D15" />
    <path d="M533 546Q533 698 573 797Q613 896 679 944Q745 992 824 992Q930 992 986 928.5Q1042 865 1042 738Q1042 608 989.5 546Q937 484 853 484Q768 484 726 527.5Q684 571 684 648L684 690Q683 715 672.5 729Q662 743 640 743Q620 743 604.5 725Q589 707 580 667.5Q571 628 571 561ZM544 904L571 692L571 206Q571 172 581 157.5Q591 143 626 136L703 121Q732 115 746 100.5Q760 86 760 60Q760 31 741 15.5Q722 0 684 0L132 0Q92 0 74.5 15.5Q57 31 57 59Q57 78 67 93Q77 108 99 117L122 127Q137 134 143 150.5Q149 167 149 206L149 679Q149 710 140.5 723.5Q132 737 115 742L93 748Q72 755 62.5 768Q53 781 53 800Q53 824 66.5 838Q80 852 114 865L333 949Q403 976 433 984Q463 992 480 992Q508 992 522.5 972Q537 952 544 904Z" transform="translate(183.11, 270.00) scale(0.046, -0.046)" fill="#241D15" />
    <path d="M663 136L663 159L631 159L631 807Q631 845 610.5 868Q590 891 555 891Q529 891 509.5 878.5Q490 866 490 844L490 735Q490 652 433 606Q376 560 269 560Q179 560 135 598Q91 636 91 705Q91 771 150.5 836.5Q210 902 330 946Q450 990 632 990Q843 990 946 912.5Q1049 835 1049 701L1049 223Q1049 203 1058.5 191Q1068 179 1088 179Q1105 179 1115.5 188Q1126 197 1135 206Q1142 213 1149 218Q1156 223 1166 223Q1183 223 1190 211Q1197 199 1197 180Q1197 136 1165.5 88Q1134 40 1070.5 6Q1007 -28 913 -28Q802 -28 732.5 19Q663 66 663 136ZM54 213Q54 349 177.5 428.5Q301 508 525 508Q584 508 627.5 500Q671 492 699 477L665 392Q644 404 625.5 409Q607 414 585 414Q536 414 507.5 381Q479 348 479 286Q479 221 507 187.5Q535 154 581 154Q610 154 635.5 167.5Q661 181 674 199L698 121Q650 50 559 11Q468 -28 364 -28Q225 -28 139.5 41Q54 110 54 213Z" transform="translate(232.10, 270.00) scale(0.046, -0.046)" fill="#241D15" />
    <path d="M769 175L754 176L754 1200Q754 1232 746 1245Q738 1258 721 1263L698 1270Q678 1277 668.5 1289.5Q659 1302 659 1322Q659 1345 671.5 1359Q684 1373 720 1386L946 1473Q996 1492 1026.5 1501Q1057 1510 1087 1510Q1131 1510 1154 1485Q1177 1460 1177 1422L1177 206Q1177 167 1183 150.5Q1189 134 1204 127L1226 117Q1249 108 1258.5 93Q1268 78 1268 59Q1268 31 1250.5 15.5Q1233 0 1194 0L935 0Q869 0 819 48Q769 96 769 161ZM49 449Q49 612 115.5 734Q182 856 297.5 924Q413 992 559 992Q680 992 769 941Q858 890 923 786L816 714Q771 779 730.5 806.5Q690 834 642 834Q595 834 559.5 800Q524 766 504.5 691Q485 616 485 492Q485 379 505.5 310Q526 241 561 209.5Q596 178 641 178Q697 178 742 215Q787 252 828 335L897 268Q813 131 706.5 51.5Q600 -28 464 -28Q345 -28 251 33Q157 94 103 201Q49 308 49 449Z" transform="translate(287.21, 270.00) scale(0.046, -0.046)" fill="#241D15" />
    <path d="M663 136L663 159L631 159L631 807Q631 845 610.5 868Q590 891 555 891Q529 891 509.5 878.5Q490 866 490 844L490 735Q490 652 433 606Q376 560 269 560Q179 560 135 598Q91 636 91 705Q91 771 150.5 836.5Q210 902 330 946Q450 990 632 990Q843 990 946 912.5Q1049 835 1049 701L1049 223Q1049 203 1058.5 191Q1068 179 1088 179Q1105 179 1115.5 188Q1126 197 1135 206Q1142 213 1149 218Q1156 223 1166 223Q1183 223 1190 211Q1197 199 1197 180Q1197 136 1165.5 88Q1134 40 1070.5 6Q1007 -28 913 -28Q802 -28 732.5 19Q663 66 663 136ZM54 213Q54 349 177.5 428.5Q301 508 525 508Q584 508 627.5 500Q671 492 699 477L665 392Q644 404 625.5 409Q607 414 585 414Q536 414 507.5 381Q479 348 479 286Q479 221 507 187.5Q535 154 581 154Q610 154 635.5 167.5Q661 181 674 199L698 121Q650 50 559 11Q468 -28 364 -28Q225 -28 139.5 41Q54 110 54 213Z" transform="translate(347.70, 270.00) scale(0.046, -0.046)" fill="#241D15" />
    <path d="M530 868Q471 868 442.5 842.5Q414 817 414 782Q414 761 422 742Q430 723 459.5 708Q489 693 552 682Q736 650 832.5 598.5Q929 547 964.5 477Q1000 407 1000 319Q1000 156 887 64Q774 -28 553 -28Q478 -28 432.5 -16Q387 -4 359.5 8Q332 20 311 20Q287 20 270.5 8Q254 -4 237.5 -16Q221 -28 197 -28Q172 -28 159.5 -13.5Q147 1 137 37L85 218Q69 269 76 299Q83 329 113 341Q145 353 168 342Q191 331 213 299Q260 230 309.5 185.5Q359 141 414 119Q469 97 527 97Q593 97 626.5 122Q660 147 660 189Q660 215 646.5 234.5Q633 254 591.5 269.5Q550 285 466 301Q321 327 236 375.5Q151 424 114.5 495Q78 566 78 661Q78 762 132 836Q186 910 280 951Q374 992 495 992Q573 992 618.5 979.5Q664 967 692.5 954.5Q721 942 748 942Q774 942 793 954.5Q812 967 830.5 979.5Q849 992 873 992Q894 992 909 976Q924 960 931 922L962 749Q971 699 963.5 674Q956 649 927 637Q897 624 873.5 637.5Q850 651 826 685Q755 787 678.5 827.5Q602 868 530 868Z" transform="translate(402.81, 270.00) scale(0.046, -0.046)" fill="#241D15" />
  </g>

  <!-- Golden yellow smile curve -->
  <g transform="translate(72.21, 296.00) scale(3.1688)">
    <path d="M4 3c16 12 56 12 92 4c6-1.4 14-2 22-1"
          stroke="#F4C43F"
          stroke-width="5.5"
          stroke-linecap="round"
          fill="none" />
  </g>
</svg>